<?xml version="1.0" encoding="UTF-8" standalone="no"?>
<svg
   xmlns:dc="http://purl.org/dc/elements/1.1/"
   xmlns:cc="http://creativecommons.org/ns#"
   xmlns:rdf="http://www.w3.org/1999/02/22-rdf-syntax-ns#"
   xmlns:svg="http://www.w3.org/2000/svg"
   xmlns="http://www.w3.org/2000/svg"
   width="429"
   height="120"
   viewBox="0 0 113.50625 31.75"
   version="1.1"
   id="svg8">
  <defs
     id="defs2">
    <style
       id="style819"
       type="text/css">@import url(https://fonts.googleapis.com/css?family=Arvo);
</style>
  </defs>
  <metadata
     id="metadata5">
    <rdf:RDF>
      <cc:Work
         rdf:about="">
        <dc:format>image/svg+xml</dc:format>
        <dc:type
           rdf:resource="http://purl.org/dc/dcmitype/StillImage" />
        <dc:title></dc:title>
      </cc:Work>
    </rdf:RDF>
  </metadata>
  <g
     id="layer1"
     transform="translate(0,-265.24999)">
    <g
       transform="matrix(1.0735178,0,0,1.0735178,-85.500699,107.5143)"
       id="text817"
       style="font-style:normal;font-weight:normal;font-size:33.66280365px;line-height:1.25;font-family:sans-serif;letter-spacing:0px;word-spacing:0px;fill:#e67745;fill-opacity:1;stroke:none;stroke-width:0.84157002"
       aria-label="Visket">
      <path
         id="path911"
         style="font-style:normal;font-variant:normal;font-weight:normal;font-stretch:normal;font-size:33.66280365px;font-family:Arvo;-inkscape-font-specification:'Arvo, Normal';font-variant-ligatures:normal;font-variant-caps:normal;font-variant-numeric:normal;font-feature-settings:normal;text-align:start;writing-mode:lr-tb;text-anchor:start;fill:#e67745;fill-opacity:1;stroke-width:0.84157002"
         d="m 97.97708,149.2818 h 8.08696 v 2.84359 h -2.15323 l -8.070529,22.07477 H 91.32013 l -7.955468,-22.07477 h -2.202546 v -2.84359 h 8.086962 v 2.84359 h -2.169673 l 6.39396,19.21475 6.854195,-19.21475 h -2.35048 z" />
      <path
         id="path913"
         style="font-style:normal;font-variant:normal;font-weight:normal;font-stretch:normal;font-size:33.66280365px;font-family:Arvo;-inkscape-font-specification:'Arvo, Normal';font-variant-ligatures:normal;font-variant-caps:normal;font-variant-numeric:normal;font-feature-settings:normal;text-align:start;writing-mode:lr-tb;text-anchor:start;fill:#e67745;fill-opacity:1;stroke-width:0.84157002"
         d="m 106.73796,157.17152 h 5.55567 v 14.2015 h 2.56416 v 2.82714 h -8.08696 v -2.82714 h 2.43266 v -11.37435 h -2.46553 z m 1.89024,-6.03235 q 0,-0.42736 0.16437,-0.80541 0.18081,-0.39448 0.46023,-0.67391 0.29587,-0.29587 0.69035,-0.46023 0.39449,-0.18081 0.83829,-0.18081 0.42736,0 0.80541,0.18081 0.39448,0.16436 0.67391,0.46023 0.29586,0.27943 0.46023,0.67391 0.18081,0.37805 0.18081,0.80541 0,0.4438 -0.18081,0.83828 -0.16437,0.39449 -0.46023,0.70679 -0.27943,0.29587 -0.67391,0.47667 -0.37805,0.16437 -0.80541,0.16437 -0.4438,0 -0.83829,-0.16437 -0.39448,-0.1808 -0.69035,-0.47667 -0.27942,-0.3123 -0.46023,-0.70679 -0.16437,-0.39448 -0.16437,-0.83828 z" />
      <path
         id="path915"
         style="font-style:normal;font-variant:normal;font-weight:normal;font-stretch:normal;font-size:33.66280365px;font-family:Arvo;-inkscape-font-specification:'Arvo, Normal';font-variant-ligatures:normal;font-variant-caps:normal;font-variant-numeric:normal;font-feature-settings:normal;text-align:start;writing-mode:lr-tb;text-anchor:start;fill:#e67745;fill-opacity:1;stroke-width:0.84157002"
         d="m 127.49778,161.74098 q 0,-0.69035 -0.32874,-1.16702 -0.3123,-0.49311 -0.82184,-0.78897 -0.50955,-0.3123 -1.13415,-0.4438 -0.6246,-0.14793 -1.21633,-0.14793 -0.65748,0 -1.21633,0.14793 -0.54242,0.14794 -0.93691,0.42736 -0.39448,0.27943 -0.6246,0.69035 -0.21368,0.39449 -0.21368,0.8876 0,0.85472 0.50954,1.36426 0.52599,0.49311 1.74232,0.92047 l 3.27094,1.15058 q 2.10393,0.70679 3.07371,1.92312 0.96978,1.21633 0.96978,2.90934 0,1.13414 -0.46024,2.08748 -0.4438,0.93691 -1.28208,1.61082 -0.82184,0.65748 -1.98886,1.01909 -1.16703,0.37805 -2.59704,0.37805 -1.98886,0 -3.23807,-0.64104 -1.24921,-0.64104 -1.92312,-1.693 h -1.70944 v -2.82715 h 3.40244 q 0,0.70678 0.29587,1.21633 0.3123,0.49311 0.80541,0.80541 0.50954,0.3123 1.13414,0.46023 0.64104,0.14793 1.29852,0.14793 0.64104,0 1.23277,-0.14793 0.59173,-0.16437 1.03552,-0.46023 0.46024,-0.3123 0.72323,-0.73966 0.26299,-0.42736 0.26299,-0.96978 0,-0.82185 -0.54242,-1.39714 -0.52598,-0.57529 -1.80806,-1.03552 l -3.25451,-1.21634 q -1.98887,-0.70678 -2.95864,-1.79162 -0.95334,-1.10127 -0.95334,-2.74497 0,-1.08483 0.39448,-2.0053 0.41092,-0.92047 1.16702,-1.57794 0.77254,-0.67392 1.87381,-1.05197 1.10127,-0.37804 2.51485,-0.37804 1.8245,0 3.05727,0.50954 1.23276,0.50954 2.21898,1.74231 h 1.59438 v 2.82715 z" />
      <path
         id="path917"
         style="font-style:normal;font-variant:normal;font-weight:normal;font-stretch:normal;font-size:33.66280365px;font-family:Arvo;-inkscape-font-specification:'Arvo, Normal';font-variant-ligatures:normal;font-variant-caps:normal;font-variant-numeric:normal;font-feature-settings:normal;text-align:start;writing-mode:lr-tb;text-anchor:start;fill:#e67745;fill-opacity:1;stroke-width:0.84157002"
         d="m 133.85887,148.62432 h 5.99947 v 2.82715 h -0.0329 v 12.72218 h 2.95864 l 4.04348,-4.17498 h -1.01908 v -2.82715 h 6.4597 v 2.82715 h -2.15323 l -5.17763,5.342 5.6543,6.03235 h 2.05461 v 2.82714 h -3.59968 l -6.96925,-7.61029 h -2.25186 v 4.78315 h 1.41357 v 2.82714 h -7.28155 v -2.82714 h 2.79428 v -19.92155 h -2.8929 z" />
      <path
         id="path919"
         style="font-style:normal;font-variant:normal;font-weight:normal;font-stretch:normal;font-size:33.66280365px;font-family:Arvo;-inkscape-font-specification:'Arvo, Normal';font-variant-ligatures:normal;font-variant-caps:normal;font-variant-numeric:normal;font-feature-settings:normal;text-align:start;writing-mode:lr-tb;text-anchor:start;fill:#e67745;fill-opacity:1;stroke-width:0.84157002"
         d="m 157.67595,166.08033 q 0,0.72322 0.0986,1.33139 0.11505,0.59173 0.3123,1.13415 0.60816,1.64369 1.93955,2.48197 1.34783,0.82185 3.04083,0.82185 1.33139,0 2.5806,-0.36162 1.26564,-0.37805 2.64634,-1.16702 l 1.23277,2.08749 q -1.67656,1.15059 -3.36957,1.70944 -1.693,0.55886 -3.5175,0.55886 -1.72587,0 -3.2052,-0.5753 -1.46288,-0.57529 -2.53128,-1.70944 -1.05196,-1.13414 -1.66013,-2.82715 -0.59173,-1.693 -0.59173,-3.94486 0,-1.82449 0.50955,-3.43531 0.50954,-1.62726 1.51219,-2.82715 1.01909,-1.21633 2.51485,-1.92312 1.49576,-0.70679 3.48463,-0.70679 1.92312,0 3.2052,0.59173 1.29851,0.57529 2.10392,1.54507 0.82185,0.95334 1.23277,2.18611 0.42736,1.23277 0.59173,2.51485 0.0822,0.6246 0.0986,1.26564 0.0329,0.64104 0.0329,1.24921 z m 4.78315,-6.78845 q -1.0684,0 -1.87381,0.3123 -0.78897,0.29587 -1.34783,0.87116 -0.55885,0.55886 -0.90403,1.3807 -0.32874,0.82185 -0.49311,1.84094 h 8.82663 q -0.0658,-0.95335 -0.3123,-1.75875 -0.23012,-0.80541 -0.72323,-1.39714 -0.49311,-0.59173 -1.26564,-0.92047 -0.77254,-0.32874 -1.90668,-0.32874 z" />
      <path
         id="path921"
         style="font-style:normal;font-variant:normal;font-weight:normal;font-stretch:normal;font-size:33.66280365px;font-family:Arvo;-inkscape-font-specification:'Arvo, Normal';font-variant-ligatures:normal;font-variant-caps:normal;font-variant-numeric:normal;font-feature-settings:normal;text-align:start;writing-mode:lr-tb;text-anchor:start;fill:#e67745;fill-opacity:1;stroke-width:0.84157002"
         d="m 179.04395,157.17152 h 3.99417 v 2.48197 h -4.02704 l -0.0493,9.82928 q 0,1.00265 0.23011,1.62725 0.23012,0.62461 0.73966,0.87116 0.50955,0.23012 1.15059,0.23012 0.69035,0 1.21633,-0.11506 0.52598,-0.1315 1.15058,-0.42736 l 0.70679,2.05461 q -0.78897,0.41093 -1.66013,0.64104 -0.87115,0.24656 -2.05461,0.24656 -1.11771,0 -1.95599,-0.27943 -0.82185,-0.26299 -1.39714,-0.90403 -0.55886,-0.64104 -0.83828,-1.70944 -0.27943,-1.08484 -0.27943,-2.69565 l 0.0493,-9.36905 h -2.71209 v -2.48197 h 2.74496 v -4.07636 l 2.99152,-1.41357 z" />
    </g>
  </g>
</svg>
